<svg width="63" height="63" viewBox="0 0 63 63" fill="none" xmlns="http://www.w3.org/2000/svg">
<path d="M31.1231 56.5926C17.3334 56.4751 6.19955 45.1459 6.31974 31.3538C6.43994 17.5618 17.7696 6.42377 31.5593 6.54119C45.3489 6.65861 56.4828 17.9879 56.3626 31.7799C56.2424 45.572 44.9128 56.71 31.1231 56.5926Z" fill="url(#paint0_radial_2152_8274)"/>
<g style="mix-blend-mode:multiply">
<path d="M53.7207 25.5639C51.3556 32.1151 41.8352 35.9972 31.3778 35.8986C20.9204 35.7999 13.7359 33.7577 8.85423 26.7665C8.85423 26.7665 8.40857 29.5496 8.39443 30.9896C8.26989 43.671 18.5098 54.0808 31.1749 54.2003C43.8399 54.3198 54.2824 44.1051 54.4069 31.4238C54.4354 28.5206 54.0814 26.7054 53.6975 25.5636L53.7207 25.5639Z" fill="url(#paint1_linear_2152_8274)"/>
</g>
<path d="M31.5624 6.19318C45.5613 6.31238 56.8334 17.7824 56.7114 31.7838C56.5894 45.7852 45.119 57.0616 31.1201 56.9424C17.1212 56.8232 5.84917 45.3531 5.97119 31.3517C6.09321 17.3504 17.5635 6.07397 31.5624 6.19318ZM31.6113 0.587972C14.4963 0.442234 0.516158 14.1861 0.366976 31.304C0.217794 48.422 13.9564 62.4019 31.0713 62.5476C48.1862 62.6933 62.1664 48.9495 62.3156 31.8315C62.4648 14.7136 48.7262 0.733709 31.6113 0.587972Z" fill="#DCE8F7"/>
<path d="M31.5624 6.19318C45.5613 6.31238 56.8334 17.7824 56.7114 31.7838C56.5894 45.7852 45.119 57.0616 31.1201 56.9424C17.1212 56.8232 5.84917 45.3531 5.97119 31.3517C6.09321 17.3504 17.5635 6.07397 31.5624 6.19318ZM31.6113 0.587972C14.4963 0.442234 0.516158 14.1861 0.366976 31.304C0.217794 48.422 13.9564 62.4019 31.0713 62.5476C48.1862 62.6933 62.1664 48.9495 62.3156 31.8315C62.4648 14.7136 48.7262 0.733709 31.6113 0.587972Z" fill="url(#paint2_linear_2152_8274)"/>
<path d="M31.5479 7.86815C44.6167 7.97944 55.1512 18.6989 55.0373 31.7699C54.9234 44.8409 44.2036 55.3794 31.1348 55.2681C18.066 55.1568 7.53151 44.4374 7.64542 31.3664C7.75933 18.2953 18.4791 7.75687 31.5479 7.86815ZM31.5625 6.19357C17.5635 6.07437 6.09314 17.3507 5.97112 31.3521C5.8491 45.3535 17.1212 56.8235 31.1202 56.9427C45.1192 57.0619 56.5895 45.7855 56.7116 31.7842C56.8336 17.7828 45.5615 6.31278 31.5625 6.19357Z" fill="url(#paint3_linear_2152_8274)"/>
<path style="mix-blend-mode:multiply" d="M56.713 31.781C56.591 45.7836 45.1204 57.0611 31.121 56.9419C17.1216 56.8228 5.84914 45.3518 5.97111 31.3492C5.97395 31.0236 1.99901 30.8036 0.777898 26.8155C0.555841 28.2791 0.403346 29.7665 0.389974 31.3017C0.240853 48.4212 13.9799 62.4022 31.0954 62.5478C48.2109 62.6935 62.1915 48.9484 62.3406 31.8289C62.354 30.2937 62.2272 28.8272 62.0307 27.36C61.1591 31.3071 56.7621 31.479 56.7595 31.7814L56.713 31.781Z" fill="url(#paint4_linear_2152_8274)"/>
<g style="mix-blend-mode:color">
<circle cx="31.0979" cy="31.7374" r="31.0978" fill="#A7D22D"/>
</g>
<g style="mix-blend-mode:darken">
<circle cx="31.0979" cy="31.7374" r="31.0978" fill="#A7D22D"/>
</g>
<g style="mix-blend-mode:color-burn" opacity="0.7">
<path fill-rule="evenodd" clip-rule="evenodd" d="M25.6357 31.7003L16.7323 25.34L20.1644 20.5356L35.7786 31.69L20.7783 42.4522L17.3363 37.6549L25.6357 31.7003Z" fill="#191B1D"/>
<path fill-rule="evenodd" clip-rule="evenodd" d="M44.8325 25.3266L37.2594 30.3751L32.4679 26.9311L41.3906 20.5293L44.8325 25.3266Z" fill="#191B1D"/>
<path fill-rule="evenodd" clip-rule="evenodd" d="M37.2594 33.0175L44.331 37.8191L40.907 42.6292L32.4741 36.6264L37.2594 33.0175Z" fill="#191B1D"/>
</g>
<circle cx="16" cy="47" r="16" fill="#212A09"/>
<path fill-rule="evenodd" clip-rule="evenodd" d="M23.5239 49.6166C23.3507 53.7524 19.9444 57.0525 15.7661 57.0525C11.477 57.0525 8.00001 53.4586 8.00001 49.2864C8.00001 48.7287 7.99001 47.6142 8.82619 45.7338C9.3266 44.6084 9.64047 43.9015 9.8176 43.2552C9.91493 42.9001 10.1042 42.3358 10.6438 43.2552C10.9619 43.7974 10.9743 44.5771 10.9743 44.5771C10.9743 44.5771 12.158 43.6687 12.9571 41.9333C14.1285 39.3893 13.1939 37.8685 12.8745 36.811C12.7639 36.4452 12.6945 35.7877 13.4528 36.0675C14.2254 36.3526 16.2681 37.7824 17.3359 39.2896C18.8597 41.4405 19.4013 43.5031 19.4013 43.5031C19.4013 43.5031 19.8892 42.8975 20.0622 42.2638C20.2576 41.5483 20.2605 40.8396 20.8883 41.603C21.4854 42.3289 22.3722 43.6932 22.8713 44.9902C23.7775 47.3456 23.5239 49.6166 23.5239 49.6166Z" fill="url(#paint5_linear_2152_8274)"/>
<path fill-rule="evenodd" clip-rule="evenodd" d="M15.7653 57.0524C12.7994 57.0524 10.3951 54.6481 10.3951 51.6822C10.3951 49.8926 11.1163 48.8061 12.6172 47.3327C13.5783 46.3893 14.4777 45.2306 14.86 44.4416C14.9353 44.2863 15.1065 43.4768 15.7669 44.4246C16.1133 44.9216 16.6564 45.8055 17.0046 46.5599C17.6049 47.8606 17.7482 49.1211 17.7482 49.1211C17.7482 49.1211 18.3365 48.7744 18.7396 47.8818C18.8695 47.5941 19.1323 46.505 19.8667 47.594C20.4056 48.393 21.146 49.8298 21.1355 51.6822C21.1355 54.6481 18.7311 57.0524 15.7653 57.0524Z" fill="#FC9502"/>
<path fill-rule="evenodd" clip-rule="evenodd" d="M15.8488 51.1865C16.613 51.1865 16.613 52.6017 17.5837 54.4912C18.2301 55.7494 17.2633 57.0524 15.8488 57.0524C14.4342 57.0524 13.7007 55.9058 13.7007 54.4912C13.7007 53.0768 15.0845 51.1865 15.8488 51.1865Z" fill="#FCE202"/>
<defs>
<radialGradient id="paint0_radial_2152_8274" cx="0" cy="0" r="1" gradientUnits="userSpaceOnUse" gradientTransform="translate(32.3233 12.2696) rotate(0.487874) scale(44.0449 35.242)">
<stop stop-color="#EBF6FF"/>
<stop offset="0.24" stop-color="#D3DAE1"/>
<stop offset="0.38" stop-color="#C9CED4"/>
<stop offset="0.4" stop-color="#C6CBD1"/>
<stop offset="0.52" stop-color="#B9BFC4"/>
<stop offset="0.63" stop-color="#B5BBC0"/>
<stop offset="0.7" stop-color="#A3A9AE"/>
<stop offset="0.9" stop-color="#777D82"/>
<stop offset="1" stop-color="#666C71"/>
</radialGradient>
<linearGradient id="paint1_linear_2152_8274" x1="31.1967" y1="54.3399" x2="31.4264" y2="29.9991" gradientUnits="userSpaceOnUse">
<stop stop-color="#AFB8C0"/>
<stop offset="0.32" stop-color="#C6D0D6"/>
<stop offset="0.75" stop-color="#E0EAEE"/>
<stop offset="1" stop-color="#EAF4F7"/>
</linearGradient>
<linearGradient id="paint2_linear_2152_8274" x1="31.0713" y1="62.5476" x2="31.5989" y2="0.587866" gradientUnits="userSpaceOnUse">
<stop stop-color="#9EA6AC"/>
<stop offset="0.16" stop-color="#A8B0B5"/>
<stop offset="0.44" stop-color="#C5CBD0"/>
<stop offset="0.47" stop-color="#C9CFD4"/>
<stop offset="0.64" stop-color="#CCD2D7"/>
<stop offset="0.79" stop-color="#D6DBE1"/>
<stop offset="0.93" stop-color="#E7EBF2"/>
<stop offset="1" stop-color="#F3F6FF"/>
</linearGradient>
<linearGradient id="paint3_linear_2152_8274" x1="31.1202" y1="56.9427" x2="31.5524" y2="6.19349" gradientUnits="userSpaceOnUse">
<stop stop-color="#E8F2F5"/>
<stop offset="0.22" stop-color="#C9CED4"/>
<stop offset="0.34" stop-color="#BBC0C6"/>
<stop offset="0.61" stop-color="#A2A7AC"/>
<stop offset="0.8" stop-color="#7F8387"/>
<stop offset="1" stop-color="#55585B"/>
</linearGradient>
<linearGradient id="paint4_linear_2152_8274" x1="31.0722" y1="62.5476" x2="31.374" y2="27.0758" gradientUnits="userSpaceOnUse">
<stop stop-color="#AFB9C0"/>
<stop offset="0.51" stop-color="#B0BAC1"/>
<stop offset="0.69" stop-color="#B7C1C8"/>
<stop offset="0.82" stop-color="#C3CBD2"/>
<stop offset="0.93" stop-color="#D4DBE2"/>
<stop offset="1" stop-color="#E5EBF2"/>
</linearGradient>
<linearGradient id="paint5_linear_2152_8274" x1="15.7778" y1="57.068" x2="15.7778" y2="36.0159" gradientUnits="userSpaceOnUse">
<stop stop-color="#FF4C0D"/>
<stop offset="1" stop-color="#FC9502"/>
</linearGradient>
</defs>
</svg>
